<svg xmlns="http://www.w3.org/2000/svg" width="360" height="96" viewBox="0 0 360 96" role="img" aria-label="Seekarr search automation brand">
  <defs>
    <linearGradient id="sidebarBg" x1="0" y1="0" x2="1" y2="1">
      <stop offset="0%" stop-color="#0b0f14"/>
      <stop offset="100%" stop-color="#141b27"/>
    </linearGradient>
    <linearGradient id="sidebarAccent" x1="0" y1="0" x2="1" y2="1">
      <stop offset="0%" stop-color="#ffb56a"/>
      <stop offset="100%" stop-color="#f97316"/>
    </linearGradient>
  </defs>

  <g transform="translate(0,8)">
    <rect x="0" y="0" width="78" height="78" rx="20" fill="url(#sidebarBg)" stroke="#2f3d52" stroke-width="2"/>
    <rect x="11" y="11" width="56" height="12" rx="6" fill="#111c2c" stroke="#31445f" stroke-width="1.4"/>
    <circle cx="18" cy="17" r="2.5" fill="#f97316"/>
    <rect x="25" y="14" width="28" height="5" rx="2.5" fill="#5d708e"/>
    <circle cx="58" cy="17" r="3.5" fill="#e8eef8"/>
    <path d="M61 20 L65 24" stroke="#e8eef8" stroke-width="2" stroke-linecap="round"/>

    <rect x="11" y="29" width="56" height="38" rx="8" fill="#0e1624" stroke="#273850" stroke-width="1.4"/>
    <rect x="17" y="35" width="18" height="12" rx="3" fill="#1a2a40"/>
    <rect x="39" y="35" width="20" height="3.8" rx="1.9" fill="#6b7e9c"/>
    <rect x="39" y="42" width="16" height="3.4" rx="1.7" fill="#51627d"/>
    <rect x="39" y="48" width="12" height="3.4" rx="1.7" fill="#51627d"/>
    <rect x="17" y="51" width="18" height="12" rx="3" fill="none" stroke="url(#sidebarAccent)" stroke-width="2"/>
    <rect x="39" y="55" width="14" height="3.6" rx="1.8" fill="#f97316"/>
  </g>

  <g transform="translate(96,10)">
    <text x="0" y="34" fill="#ffffff" font-family="Segoe UI, Inter, Helvetica, Arial, sans-serif" font-size="34" font-weight="900" letter-spacing="-0.8">Seekarr</text>
    <text x="1" y="58" fill="#94a3b8" font-family="Segoe UI, Inter, Helvetica, Arial, sans-serif" font-size="11" font-weight="700" letter-spacing="1.5">SEARCH AUTOMATION</text>
  </g>
</svg>
