<svg xmlns="http://www.w3.org/2000/svg" width="512" height="512" viewBox="0 0 256 256" role="img" aria-label="Seekarr logo">
  <defs>
    <linearGradient id="bg" x1="0" y1="0" x2="1" y2="1">
      <stop offset="0%" stop-color="#0b0f14"/>
      <stop offset="100%" stop-color="#141b27"/>
    </linearGradient>
    <linearGradient id="acc" x1="0" y1="0" x2="1" y2="1">
      <stop offset="0%" stop-color="#ffb56a"/>
      <stop offset="100%" stop-color="#f97316"/>
    </linearGradient>
  </defs>

  <rect x="6" y="6" width="244" height="244" rx="30" fill="url(#bg)" stroke="#2f3d52" stroke-width="3"/>
  <rect x="24" y="26" width="208" height="34" rx="10" fill="#111c2c" stroke="#31445f"/>
  <circle cx="38" cy="43" r="6" fill="#f97316"/>
  <rect x="56" y="36" width="126" height="14" rx="7" fill="#5d708e"/>
  <circle cx="202" cy="43" r="8" fill="#e8eef8"/>
  <path d="M208 49 L216 57" stroke="#e8eef8" stroke-width="4" stroke-linecap="round"/>

  <rect x="24" y="72" width="208" height="160" rx="12" fill="#0e1624" stroke="#273850"/>
  <g transform="translate(34,86)">
    <rect x="0" y="0" width="86" height="56" rx="8" fill="#1a2a40"/>
    <rect x="98" y="0" width="96" height="10" rx="5" fill="#6b7e9c"/>
    <rect x="98" y="18" width="76" height="9" rx="4.5" fill="#51627d"/>
    <rect x="98" y="33" width="62" height="9" rx="4.5" fill="#51627d"/>
    <rect x="98" y="48" width="48" height="8" rx="4" fill="#f97316"/>
  </g>

  <g transform="translate(34,154)">
    <rect x="0" y="0" width="86" height="56" rx="8" fill="#1a2a40"/>
    <rect x="98" y="0" width="104" height="10" rx="5" fill="#6b7e9c"/>
    <rect x="98" y="18" width="82" height="9" rx="4.5" fill="#51627d"/>
    <rect x="98" y="33" width="66" height="9" rx="4.5" fill="#51627d"/>
    <rect x="98" y="48" width="52" height="8" rx="4" fill="#f97316"/>
  </g>

  <rect x="34" y="154" width="86" height="56" rx="8" fill="none" stroke="url(#acc)" stroke-width="3"/>
</svg>
